<mxfile host="app.diagrams.net" modified="2023-05-16T22:51:59.726Z" agent="Mozilla/5.0 (Windows NT 10.0; Win64; x64) AppleWebKit/537.36 (KHTML, like Gecko) Chrome/92.0.4515.131 Safari/537.36 Edg/92.0.902.67" etag="6olZIzw1pMh8-MhvLWo8" version="21.2.9" type="github">
  <diagram id="aXPtKR9Dp8ojyyHZIu-4" name="Page-1">
    <mxGraphModel dx="2234" dy="1596" grid="1" gridSize="10" guides="1" tooltips="1" connect="1" arrows="1" fold="1" page="0" pageScale="1" pageWidth="850" pageHeight="1100" math="0" shadow="0">
      <root>
        <mxCell id="0" />
        <mxCell id="1" parent="0" />
        <mxCell id="tgfpu5Pf73SE2RLoUoSD-70" value="RelatÃ³rio" style="rounded=0;whiteSpace=wrap;html=1;align=center;verticalAlign=bottom;labelPosition=center;verticalLabelPosition=top;fontStyle=1;fontSize=26;" parent="1" vertex="1">
          <mxGeometry x="-35" y="470" width="220" height="510" as="geometry" />
        </mxCell>
        <mxCell id="2" value="Funcionario" style="shape=umlActor;verticalLabelPosition=bottom;verticalAlign=top;html=1;" parent="1" vertex="1">
          <mxGeometry x="50" y="185" width="50" height="100" as="geometry" />
        </mxCell>
        <mxCell id="6" value="Cliente" style="rounded=0;whiteSpace=wrap;html=1;align=center;verticalAlign=bottom;labelPosition=center;verticalLabelPosition=top;fontStyle=1;fontSize=26;" parent="1" vertex="1">
          <mxGeometry x="310" y="-10" width="220" height="570" as="geometry" />
        </mxCell>
        <mxCell id="7" value="Adicionar Cliente" style="ellipse;whiteSpace=wrap;html=1;" parent="1" vertex="1">
          <mxGeometry x="350" y="50" width="140" height="70" as="geometry" />
        </mxCell>
        <mxCell id="10" value="Listar Cliente" style="ellipse;whiteSpace=wrap;html=1;" parent="1" vertex="1">
          <mxGeometry x="350" y="240" width="140" height="70" as="geometry" />
        </mxCell>
        <mxCell id="11" value="Buscar Cliente" style="ellipse;whiteSpace=wrap;html=1;" parent="1" vertex="1">
          <mxGeometry x="350" y="420" width="140" height="70" as="geometry" />
        </mxCell>
        <mxCell id="tgfpu5Pf73SE2RLoUoSD-22" value="" style="endArrow=classic;html=1;rounded=0;" parent="1" source="2" target="7" edge="1">
          <mxGeometry width="50" height="50" relative="1" as="geometry">
            <mxPoint x="170" y="210" as="sourcePoint" />
            <mxPoint x="200" y="180" as="targetPoint" />
          </mxGeometry>
        </mxCell>
        <mxCell id="tgfpu5Pf73SE2RLoUoSD-23" value="&amp;lt;&amp;lt;include&amp;gt;&amp;gt;" style="html=1;verticalAlign=bottom;labelBackgroundColor=none;endArrow=open;endFill=0;dashed=1;rounded=0;" parent="1" source="tgfpu5Pf73SE2RLoUoSD-24" target="7" edge="1">
          <mxGeometry width="160" relative="1" as="geometry">
            <mxPoint x="580" y="10" as="sourcePoint" />
            <mxPoint x="700" y="30" as="targetPoint" />
            <Array as="points" />
          </mxGeometry>
        </mxCell>
        <mxCell id="tgfpu5Pf73SE2RLoUoSD-24" value="inserir cliente" style="ellipse;whiteSpace=wrap;html=1;" parent="1" vertex="1">
          <mxGeometry x="640" y="10" width="120" height="80" as="geometry" />
        </mxCell>
        <mxCell id="tgfpu5Pf73SE2RLoUoSD-25" value="" style="endArrow=classic;html=1;rounded=0;" parent="1" source="2" target="10" edge="1">
          <mxGeometry width="50" height="50" relative="1" as="geometry">
            <mxPoint x="140" y="470" as="sourcePoint" />
            <mxPoint x="190" y="420" as="targetPoint" />
            <Array as="points" />
          </mxGeometry>
        </mxCell>
        <mxCell id="tgfpu5Pf73SE2RLoUoSD-34" value="&amp;lt;&amp;lt;extend&amp;gt;&amp;gt;" style="html=1;verticalAlign=bottom;labelBackgroundColor=none;endArrow=open;endFill=0;dashed=1;rounded=0;" parent="1" source="tgfpu5Pf73SE2RLoUoSD-35" target="10" edge="1">
          <mxGeometry width="160" relative="1" as="geometry">
            <mxPoint x="610" y="455" as="sourcePoint" />
            <mxPoint x="770" y="450" as="targetPoint" />
          </mxGeometry>
        </mxCell>
        <mxCell id="tgfpu5Pf73SE2RLoUoSD-35" value="Remover Cliente" style="ellipse;whiteSpace=wrap;html=1;" parent="1" vertex="1">
          <mxGeometry x="640" y="220" width="120" height="80" as="geometry" />
        </mxCell>
        <mxCell id="tgfpu5Pf73SE2RLoUoSD-36" value="Atualizar Cliente" style="ellipse;whiteSpace=wrap;html=1;" parent="1" vertex="1">
          <mxGeometry x="640" y="410" width="120" height="80" as="geometry" />
        </mxCell>
        <mxCell id="tgfpu5Pf73SE2RLoUoSD-37" value="&amp;lt;&amp;lt;extend&amp;gt;&amp;gt;" style="html=1;verticalAlign=bottom;labelBackgroundColor=none;endArrow=open;endFill=0;dashed=1;rounded=0;" parent="1" source="tgfpu5Pf73SE2RLoUoSD-36" target="10" edge="1">
          <mxGeometry width="160" relative="1" as="geometry">
            <mxPoint x="470" y="590" as="sourcePoint" />
            <mxPoint x="630" y="590" as="targetPoint" />
          </mxGeometry>
        </mxCell>
        <mxCell id="tgfpu5Pf73SE2RLoUoSD-39" value="&amp;lt;&amp;lt;extend&amp;gt;&amp;gt;" style="html=1;verticalAlign=bottom;labelBackgroundColor=none;endArrow=open;endFill=0;dashed=1;rounded=0;" parent="1" source="11" target="10" edge="1">
          <mxGeometry width="160" relative="1" as="geometry">
            <mxPoint x="320" y="330" as="sourcePoint" />
            <mxPoint x="420" y="330" as="targetPoint" />
          </mxGeometry>
        </mxCell>
        <mxCell id="tgfpu5Pf73SE2RLoUoSD-42" value="Produto" style="rounded=0;whiteSpace=wrap;html=1;fontStyle=1;fontSize=26;labelPosition=center;verticalLabelPosition=top;align=center;verticalAlign=bottom;" parent="1" vertex="1">
          <mxGeometry x="-350" y="-10" width="220" height="570" as="geometry" />
        </mxCell>
        <mxCell id="tgfpu5Pf73SE2RLoUoSD-43" value="Adicionar Produto" style="ellipse;whiteSpace=wrap;html=1;" parent="1" vertex="1">
          <mxGeometry x="-300" y="45" width="120" height="80" as="geometry" />
        </mxCell>
        <mxCell id="tgfpu5Pf73SE2RLoUoSD-47" value="&amp;lt;&amp;lt;extend&amp;gt;&amp;gt;" style="html=1;verticalAlign=bottom;labelBackgroundColor=none;endArrow=open;endFill=0;dashed=1;rounded=0;" parent="1" source="tgfpu5Pf73SE2RLoUoSD-48" target="tgfpu5Pf73SE2RLoUoSD-43" edge="1">
          <mxGeometry width="160" relative="1" as="geometry">
            <mxPoint x="-480" y="80" as="sourcePoint" />
            <mxPoint x="-320" y="80" as="targetPoint" />
          </mxGeometry>
        </mxCell>
        <mxCell id="tgfpu5Pf73SE2RLoUoSD-48" value="Inserir Produto" style="ellipse;whiteSpace=wrap;html=1;" parent="1" vertex="1">
          <mxGeometry x="-580" y="45" width="120" height="80" as="geometry" />
        </mxCell>
        <mxCell id="tgfpu5Pf73SE2RLoUoSD-49" value="Catalogar Produto" style="ellipse;whiteSpace=wrap;html=1;" parent="1" vertex="1">
          <mxGeometry x="-300" y="220" width="120" height="80" as="geometry" />
        </mxCell>
        <mxCell id="tgfpu5Pf73SE2RLoUoSD-50" value="Filtrar Produto" style="ellipse;whiteSpace=wrap;html=1;" parent="1" vertex="1">
          <mxGeometry x="-300" y="415" width="120" height="80" as="geometry" />
        </mxCell>
        <mxCell id="tgfpu5Pf73SE2RLoUoSD-51" value="Remover Produto" style="ellipse;whiteSpace=wrap;html=1;" parent="1" vertex="1">
          <mxGeometry x="-580" y="240" width="120" height="80" as="geometry" />
        </mxCell>
        <mxCell id="tgfpu5Pf73SE2RLoUoSD-52" value="Atualizar Produto" style="ellipse;whiteSpace=wrap;html=1;" parent="1" vertex="1">
          <mxGeometry x="-580" y="415" width="120" height="80" as="geometry" />
        </mxCell>
        <mxCell id="tgfpu5Pf73SE2RLoUoSD-53" value="&amp;lt;&amp;lt;extend&amp;gt;&amp;gt;" style="html=1;verticalAlign=bottom;labelBackgroundColor=none;endArrow=open;endFill=0;dashed=1;rounded=0;" parent="1" source="tgfpu5Pf73SE2RLoUoSD-52" target="tgfpu5Pf73SE2RLoUoSD-49" edge="1">
          <mxGeometry width="160" relative="1" as="geometry">
            <mxPoint x="-470" y="520" as="sourcePoint" />
            <mxPoint x="-310" y="520" as="targetPoint" />
          </mxGeometry>
        </mxCell>
        <mxCell id="tgfpu5Pf73SE2RLoUoSD-54" value="&amp;lt;&amp;lt;extend&amp;gt;&amp;gt;" style="html=1;verticalAlign=bottom;labelBackgroundColor=none;endArrow=open;endFill=0;dashed=1;rounded=0;" parent="1" source="tgfpu5Pf73SE2RLoUoSD-51" target="tgfpu5Pf73SE2RLoUoSD-49" edge="1">
          <mxGeometry width="160" relative="1" as="geometry">
            <mxPoint x="-540" y="380" as="sourcePoint" />
            <mxPoint x="-380" y="380" as="targetPoint" />
          </mxGeometry>
        </mxCell>
        <mxCell id="tgfpu5Pf73SE2RLoUoSD-55" value="&amp;lt;&amp;lt;extend&amp;gt;&amp;gt;" style="html=1;verticalAlign=bottom;labelBackgroundColor=none;endArrow=open;endFill=0;dashed=1;rounded=0;" parent="1" source="tgfpu5Pf73SE2RLoUoSD-50" target="tgfpu5Pf73SE2RLoUoSD-49" edge="1">
          <mxGeometry width="160" relative="1" as="geometry">
            <mxPoint x="-480" y="620" as="sourcePoint" />
            <mxPoint x="-320" y="620" as="targetPoint" />
          </mxGeometry>
        </mxCell>
        <mxCell id="tgfpu5Pf73SE2RLoUoSD-56" value="" style="endArrow=classic;html=1;rounded=0;" parent="1" source="2" target="tgfpu5Pf73SE2RLoUoSD-43" edge="1">
          <mxGeometry width="50" height="50" relative="1" as="geometry">
            <mxPoint x="-50" y="230" as="sourcePoint" />
            <mxPoint y="180" as="targetPoint" />
          </mxGeometry>
        </mxCell>
        <mxCell id="tgfpu5Pf73SE2RLoUoSD-57" value="" style="endArrow=classic;html=1;rounded=0;" parent="1" source="2" target="tgfpu5Pf73SE2RLoUoSD-49" edge="1">
          <mxGeometry width="50" height="50" relative="1" as="geometry">
            <mxPoint x="-50" y="380" as="sourcePoint" />
            <mxPoint y="330" as="targetPoint" />
          </mxGeometry>
        </mxCell>
        <mxCell id="tgfpu5Pf73SE2RLoUoSD-59" value="" style="endArrow=classic;html=1;rounded=0;" parent="1" source="2" target="tgfpu5Pf73SE2RLoUoSD-60" edge="1">
          <mxGeometry width="50" height="50" relative="1" as="geometry">
            <mxPoint x="30" y="460" as="sourcePoint" />
            <mxPoint x="-100" y="560" as="targetPoint" />
          </mxGeometry>
        </mxCell>
        <mxCell id="tgfpu5Pf73SE2RLoUoSD-60" value="Visualizar&amp;nbsp; RelatÃ³rio" style="ellipse;whiteSpace=wrap;html=1;" parent="1" vertex="1">
          <mxGeometry x="15" y="510" width="120" height="80" as="geometry" />
        </mxCell>
        <mxCell id="tgfpu5Pf73SE2RLoUoSD-61" value="Visualizar AnÃ¡litico" style="ellipse;whiteSpace=wrap;html=1;" parent="1" vertex="1">
          <mxGeometry x="300" y="680" width="120" height="80" as="geometry" />
        </mxCell>
        <mxCell id="tgfpu5Pf73SE2RLoUoSD-62" value="&amp;lt;&amp;lt;extend&amp;gt;&amp;gt;" style="html=1;verticalAlign=bottom;labelBackgroundColor=none;endArrow=open;endFill=0;dashed=1;rounded=0;" parent="1" source="tgfpu5Pf73SE2RLoUoSD-61" target="tgfpu5Pf73SE2RLoUoSD-65" edge="1">
          <mxGeometry width="160" relative="1" as="geometry">
            <mxPoint x="-160" y="590" as="sourcePoint" />
            <mxPoint x="41" y="583" as="targetPoint" />
          </mxGeometry>
        </mxCell>
        <mxCell id="tgfpu5Pf73SE2RLoUoSD-65" value="Visualizar SintÃ©tico" style="ellipse;whiteSpace=wrap;html=1;" parent="1" vertex="1">
          <mxGeometry x="15" y="680" width="120" height="80" as="geometry" />
        </mxCell>
        <mxCell id="tgfpu5Pf73SE2RLoUoSD-66" value="&amp;lt;&amp;lt;include&amp;gt;&amp;gt;" style="html=1;verticalAlign=bottom;labelBackgroundColor=none;endArrow=open;endFill=0;dashed=1;rounded=0;" parent="1" source="tgfpu5Pf73SE2RLoUoSD-65" target="tgfpu5Pf73SE2RLoUoSD-60" edge="1">
          <mxGeometry width="160" relative="1" as="geometry">
            <mxPoint x="10" y="740" as="sourcePoint" />
            <mxPoint x="170" y="740" as="targetPoint" />
          </mxGeometry>
        </mxCell>
        <mxCell id="tgfpu5Pf73SE2RLoUoSD-67" value="&amp;lt;&amp;lt;extend&amp;gt;&amp;gt;" style="html=1;verticalAlign=bottom;labelBackgroundColor=none;endArrow=open;endFill=0;dashed=1;rounded=0;" parent="1" source="tgfpu5Pf73SE2RLoUoSD-68" target="tgfpu5Pf73SE2RLoUoSD-65" edge="1">
          <mxGeometry width="160" relative="1" as="geometry">
            <mxPoint x="-25" y="710" as="sourcePoint" />
            <mxPoint x="135" y="710" as="targetPoint" />
          </mxGeometry>
        </mxCell>
        <mxCell id="8YPlcoWRZeExDEzA0TCi-31" value="Venda" style="rounded=0;whiteSpace=wrap;html=1;align=center;verticalAlign=bottom;labelPosition=center;verticalLabelPosition=top;fontStyle=1;fontSize=26;" vertex="1" parent="1">
          <mxGeometry x="-230" y="-620" width="610" height="580" as="geometry" />
        </mxCell>
        <mxCell id="tgfpu5Pf73SE2RLoUoSD-68" value="selecionar PerÃ­odo" style="ellipse;whiteSpace=wrap;html=1;" parent="1" vertex="1">
          <mxGeometry x="15" y="860" width="120" height="80" as="geometry" />
        </mxCell>
        <mxCell id="8YPlcoWRZeExDEzA0TCi-11" value="" style="endArrow=classic;html=1;rounded=0;exitX=0.5;exitY=0;exitDx=0;exitDy=0;exitPerimeter=0;" edge="1" parent="1" source="2" target="8YPlcoWRZeExDEzA0TCi-15">
          <mxGeometry width="50" height="50" relative="1" as="geometry">
            <mxPoint x="70" y="125" as="sourcePoint" />
            <mxPoint x="75" y="-10" as="targetPoint" />
          </mxGeometry>
        </mxCell>
        <mxCell id="8YPlcoWRZeExDEzA0TCi-15" value="Selecionar Cliente" style="ellipse;whiteSpace=wrap;html=1;" vertex="1" parent="1">
          <mxGeometry x="15" y="-150" width="120" height="80" as="geometry" />
        </mxCell>
        <mxCell id="8YPlcoWRZeExDEzA0TCi-17" value="Escolher Produto" style="ellipse;whiteSpace=wrap;html=1;" vertex="1" parent="1">
          <mxGeometry x="15" y="-310" width="120" height="80" as="geometry" />
        </mxCell>
        <mxCell id="8YPlcoWRZeExDEzA0TCi-18" value="&amp;lt;&amp;lt;extend&amp;gt;&amp;gt;" style="html=1;verticalAlign=bottom;labelBackgroundColor=none;endArrow=open;endFill=0;dashed=1;rounded=0;" edge="1" parent="1" source="8YPlcoWRZeExDEzA0TCi-19" target="8YPlcoWRZeExDEzA0TCi-17">
          <mxGeometry width="160" relative="1" as="geometry">
            <mxPoint x="260" y="-280" as="sourcePoint" />
            <mxPoint x="540" y="-300" as="targetPoint" />
          </mxGeometry>
        </mxCell>
        <mxCell id="8YPlcoWRZeExDEzA0TCi-19" value="Pesquisar Produto" style="ellipse;whiteSpace=wrap;html=1;" vertex="1" parent="1">
          <mxGeometry x="230" y="-310" width="120" height="80" as="geometry" />
        </mxCell>
        <mxCell id="8YPlcoWRZeExDEzA0TCi-20" value="" style="endArrow=classic;html=1;rounded=0;" edge="1" parent="1" source="8YPlcoWRZeExDEzA0TCi-15" target="8YPlcoWRZeExDEzA0TCi-17">
          <mxGeometry width="50" height="50" relative="1" as="geometry">
            <mxPoint x="40" y="-150" as="sourcePoint" />
            <mxPoint x="90" y="-200" as="targetPoint" />
          </mxGeometry>
        </mxCell>
        <mxCell id="8YPlcoWRZeExDEzA0TCi-23" value="" style="endArrow=classic;html=1;rounded=0;" edge="1" parent="1" source="8YPlcoWRZeExDEzA0TCi-17" target="8YPlcoWRZeExDEzA0TCi-22">
          <mxGeometry width="50" height="50" relative="1" as="geometry">
            <mxPoint x="40" y="-310" as="sourcePoint" />
            <mxPoint x="90" y="-360" as="targetPoint" />
          </mxGeometry>
        </mxCell>
        <mxCell id="8YPlcoWRZeExDEzA0TCi-22" value="Informar Quantidade" style="ellipse;whiteSpace=wrap;html=1;" vertex="1" parent="1">
          <mxGeometry x="15" y="-460" width="120" height="80" as="geometry" />
        </mxCell>
        <mxCell id="8YPlcoWRZeExDEzA0TCi-26" value="" style="endArrow=classic;html=1;rounded=0;" edge="1" parent="1" source="8YPlcoWRZeExDEzA0TCi-22" target="8YPlcoWRZeExDEzA0TCi-25">
          <mxGeometry width="50" height="50" relative="1" as="geometry">
            <mxPoint x="-60" y="-430" as="sourcePoint" />
            <mxPoint x="-10" y="-480" as="targetPoint" />
          </mxGeometry>
        </mxCell>
        <mxCell id="8YPlcoWRZeExDEzA0TCi-25" value="Adicionar ao Carrinho" style="ellipse;whiteSpace=wrap;html=1;" vertex="1" parent="1">
          <mxGeometry x="15" y="-600" width="120" height="80" as="geometry" />
        </mxCell>
        <mxCell id="8YPlcoWRZeExDEzA0TCi-27" value="Remover do Carrinho" style="ellipse;whiteSpace=wrap;html=1;" vertex="1" parent="1">
          <mxGeometry x="220" y="-600" width="120" height="80" as="geometry" />
        </mxCell>
        <mxCell id="8YPlcoWRZeExDEzA0TCi-28" value="&amp;lt;&amp;lt;extend&amp;gt;&amp;gt;" style="html=1;verticalAlign=bottom;labelBackgroundColor=none;endArrow=open;endFill=0;dashed=1;rounded=0;" edge="1" parent="1" source="8YPlcoWRZeExDEzA0TCi-27" target="8YPlcoWRZeExDEzA0TCi-25">
          <mxGeometry width="160" relative="1" as="geometry">
            <mxPoint x="150" y="-510" as="sourcePoint" />
            <mxPoint x="310" y="-510" as="targetPoint" />
          </mxGeometry>
        </mxCell>
        <mxCell id="8YPlcoWRZeExDEzA0TCi-29" value="Finalizar Compra" style="ellipse;whiteSpace=wrap;html=1;" vertex="1" parent="1">
          <mxGeometry x="-180" y="-600" width="120" height="80" as="geometry" />
        </mxCell>
        <mxCell id="8YPlcoWRZeExDEzA0TCi-30" value="" style="endArrow=classic;html=1;rounded=0;" edge="1" parent="1" source="8YPlcoWRZeExDEzA0TCi-25" target="8YPlcoWRZeExDEzA0TCi-29">
          <mxGeometry width="50" height="50" relative="1" as="geometry">
            <mxPoint x="-40" y="-480" as="sourcePoint" />
            <mxPoint x="10" y="-530" as="targetPoint" />
          </mxGeometry>
        </mxCell>
      </root>
    </mxGraphModel>
  </diagram>
</mxfile>
